<svg width="12" height="13" viewBox="0 0 12 13" fill="none" xmlns="http://www.w3.org/2000/svg">
<path d="M2.10576 12.6634C1.73172 12.6634 1.41225 12.5309 1.14735 12.266C0.882451 12.0011 0.75 11.6817 0.75 11.3076V1.78843H0V0.663455H3.37497V0H7.87497V0.663455H11.2499V1.78843H10.4999V11.3076C10.4999 11.6865 10.3687 12.0072 10.1062 12.2697C9.8437 12.5322 9.52303 12.6634 9.14419 12.6634H2.10576ZM9.37497 1.78843H1.87497V11.3076C1.87497 11.375 1.89661 11.4302 1.93988 11.4735C1.98315 11.5168 2.03845 11.5384 2.10576 11.5384H9.14419C9.20188 11.5384 9.25477 11.5144 9.30285 11.4663C9.35093 11.4182 9.37497 11.3653 9.37497 11.3076V1.78843ZM3.67788 10.0384H4.80285V3.28843H3.67788V10.0384ZM6.44709 10.0384H7.57207V3.28843H6.44709V10.0384ZM1.87497 1.78843V11.3076C1.87497 11.375 1.87497 11.4302 1.87497 11.4735C1.87497 11.5168 1.87497 11.5384 1.87497 11.5384C1.87497 11.5384 1.87497 11.5168 1.87497 11.4735C1.87497 11.4302 1.87497 11.375 1.87497 11.3076V1.78843Z" fill="#817475"/>
</svg>
