<svg width="18" height="18" viewBox="0 0 18 18" fill="none" xmlns="http://www.w3.org/2000/svg">
<path d="M1.15634 17.4043L0.102516 16.3505L10.2948 6.15816C9.97559 5.40687 9.91789 4.61681 10.1217 3.78797C10.3256 2.95912 10.7781 2.20432 11.4794 1.52355C12.2474 0.75561 13.1474 0.270997 14.1794 0.0697111C15.2115 -0.131575 16.0627 0.103038 16.7332 0.77355C17.4038 1.44406 17.6384 2.29534 17.4371 3.32739C17.2358 4.35944 16.7512 5.25943 15.9832 6.02737C15.3025 6.72865 14.5477 7.18121 13.7188 7.38506C12.89 7.5889 12.0999 7.53121 11.3486 7.21198L9.81016 8.75046L17.4102 16.3505L16.3563 17.4043L8.75634 9.85428L1.15634 17.4043ZM4.16403 8.91198L1.27943 6.02737C0.456355 5.2043 0.0303951 4.22546 0.0015468 3.09085C-0.0273015 1.95625 0.347373 0.958175 1.12557 0.0966398L7.03709 6.03893L4.16403 8.91198Z" fill="#775A19"/>
</svg>
