<svg width="16" height="11" viewBox="0 0 16 11" fill="none" xmlns="http://www.w3.org/2000/svg">
<path d="M0 10.9615V9.29419C0 8.90765 0.0997589 8.5627 0.299277 8.25934C0.498795 7.95598 0.765247 7.71996 1.09863 7.55127C1.81139 7.20265 2.52811 6.93387 3.24878 6.74493C3.96944 6.55599 4.76151 6.46152 5.62497 6.46152C6.48844 6.46152 7.2805 6.55599 8.00117 6.74493C8.72184 6.93387 9.43855 7.20265 10.1513 7.55127C10.4847 7.71996 10.7512 7.95598 10.9507 8.25934C11.1502 8.5627 11.2499 8.90765 11.2499 9.29419V10.9615H0ZM12.7499 10.9615V9.20188C12.7499 8.70958 12.6294 8.2404 12.3883 7.79433C12.1472 7.34827 11.8053 6.96554 11.3625 6.64614C11.8653 6.72114 12.3427 6.83724 12.7947 6.99445C13.2466 7.15166 13.6778 7.33748 14.0884 7.5519C14.4759 7.75862 14.7752 8.00228 14.9862 8.28285C15.1973 8.56343 15.3028 8.86977 15.3028 9.20188V10.9615H12.7499ZM5.62497 5.24995C4.90094 5.24995 4.28244 4.99346 3.76946 4.48048C3.25649 3.96751 3 3.349 3 2.62497C3 1.90094 3.25649 1.28244 3.76946 0.769463C4.28244 0.256488 4.90094 0 5.62497 0C6.349 0 6.96751 0.256488 7.48048 0.769463C7.99346 1.28244 8.24994 1.90094 8.24994 2.62497C8.24994 3.349 7.99346 3.96751 7.48048 4.48048C6.96751 4.99346 6.349 5.24995 5.62497 5.24995ZM12.1009 2.62497C12.1009 3.349 11.8438 3.96751 11.3298 4.48048C10.8157 4.99346 10.1978 5.24995 9.47589 5.24995C9.39127 5.24995 9.28359 5.24033 9.15282 5.2211C9.02206 5.20187 8.91437 5.18072 8.82976 5.15764C9.12554 4.80205 9.35284 4.40757 9.51168 3.9742C9.67052 3.54083 9.74994 3.09079 9.74994 2.62408C9.74994 2.15737 9.66894 1.70912 9.50692 1.27931C9.3449 0.849509 9.11918 0.453839 8.82976 0.0923035C8.93745 0.0538437 9.04514 0.0288448 9.15282 0.0173069C9.26051 0.00576897 9.3682 0 9.47589 0C10.1978 0 10.8157 0.256488 11.3298 0.769463C11.8438 1.28244 12.1009 1.90094 12.1009 2.62497ZM1.12497 9.83649H10.125V9.29419C10.125 9.13745 10.0858 8.99803 10.0074 8.87591C9.92906 8.7538 9.80478 8.64707 9.63458 8.55572C9.01728 8.23745 8.3817 7.99634 7.72786 7.8324C7.07401 7.66846 6.37305 7.58649 5.62497 7.58649C4.87689 7.58649 4.17593 7.66846 3.52209 7.8324C2.86824 7.99634 2.23267 8.23745 1.61537 8.55572C1.44517 8.64707 1.32089 8.7538 1.24252 8.87591C1.16416 8.99803 1.12497 9.13745 1.12497 9.29419V9.83649ZM5.62497 4.12497C6.03747 4.12497 6.3906 3.9781 6.68435 3.68435C6.9781 3.3906 7.12497 3.03747 7.12497 2.62497C7.12497 2.21247 6.9781 1.85935 6.68435 1.5656C6.3906 1.27185 6.03747 1.12497 5.62497 1.12497C5.21247 1.12497 4.85935 1.27185 4.5656 1.5656C4.27185 1.85935 4.12497 2.21247 4.12497 2.62497C4.12497 3.03747 4.27185 3.3906 4.5656 3.68435C4.85935 3.9781 5.21247 4.12497 5.62497 4.12497Z" fill="#4F4446"/>
</svg>
