<svg width="15" height="15" viewBox="0 0 15 15" fill="none" xmlns="http://www.w3.org/2000/svg">
<path d="M9.72979 10.5202L10.5202 9.72979L7.68746 6.89692V3.37497H6.56249V7.35285L9.72979 10.5202ZM7.12623 14.2499C6.14078 14.2499 5.2145 14.0629 4.3474 13.689C3.48029 13.315 2.72603 12.8074 2.08461 12.1663C1.44319 11.5251 0.935403 10.7712 0.561242 9.90448C0.187081 9.03776 0 8.11167 0 7.12623C0 6.14078 0.186998 5.2145 0.560993 4.3474C0.934988 3.48029 1.44255 2.72603 2.08369 2.08461C2.72482 1.44319 3.47875 0.935404 4.34547 0.561242C5.21219 0.187081 6.13827 0 7.12372 0C8.10917 0 9.03544 0.186998 9.90255 0.560993C10.7697 0.934988 11.5239 1.44255 12.1653 2.08369C12.8068 2.72482 13.3145 3.47875 13.6887 4.34547C14.0629 5.21219 14.2499 6.13827 14.2499 7.12372C14.2499 8.10917 14.0629 9.03544 13.689 9.90255C13.315 10.7696 12.8074 11.5239 12.1663 12.1653C11.5251 12.8068 10.7712 13.3145 9.90448 13.6887C9.03776 14.0629 8.11167 14.2499 7.12623 14.2499ZM7.12497 13.125C8.78747 13.125 10.2031 12.5406 11.3718 11.3718C12.5406 10.2031 13.125 8.78747 13.125 7.12497C13.125 5.46247 12.5406 4.04685 11.3718 2.8781C10.2031 1.70935 8.78747 1.12497 7.12497 1.12497C5.46247 1.12497 4.04685 1.70935 2.8781 2.8781C1.70935 4.04685 1.12497 5.46247 1.12497 7.12497C1.12497 8.78747 1.70935 10.2031 2.8781 11.3718C4.04685 12.5406 5.46247 13.125 7.12497 13.125Z" fill="#4F4446"/>
</svg>
